<svg width="24" height="24" viewBox="0 0 24 24" fill="none" xmlns="http://www.w3.org/2000/svg">
<g clip-path="url(#clip0)">
<path d="M0.326839 11.2109L7.46884 4.06888C7.9046 3.63313 8.6113 3.63313 9.04705 4.06888C9.48289 4.50472 9.48289 5.21124 9.04705 5.64708L3.81008 10.884H22.8841C23.5003 10.884 24 11.3837 24 12C24 12.6162 23.5003 13.1159 22.8841 13.1159H3.81008L9.04687 18.3529C9.48271 18.7887 9.48271 19.4953 9.04687 19.9311C8.82904 20.1488 8.54336 20.2579 8.25777 20.2579C7.97218 20.2579 7.68659 20.1488 7.46867 19.9311L0.326839 12.7891C-0.109001 12.3533 -0.109001 11.6467 0.326839 11.2109Z" fill="#D6D6D6"/>
</g>
<defs>
<clipPath id="clip0">
<rect width="24" height="24" fill="white" transform="matrix(-1 0 0 1 24 0)"/>
</clipPath>
</defs>
</svg>
