<svg width="14" height="14" viewBox="0 0 14 14" fill="none" xmlns="http://www.w3.org/2000/svg">
<path d="M13.9799 5.39396C13.9317 5.24545 13.8033 5.13723 13.6488 5.11481L9.30878 4.48413L7.3678 0.551374C7.29873 0.411375 7.15613 0.322754 7.00002 0.322754C6.84389 0.322754 6.70132 0.411375 6.63222 0.551374L4.69115 4.48413L0.351171 5.11481C0.196707 5.13723 0.0683282 5.24545 0.020094 5.39393C-0.0281676 5.54243 0.0120823 5.70543 0.12389 5.81439L3.26425 8.87563L2.52302 13.1982C2.49661 13.3521 2.55988 13.5076 2.68618 13.5994C2.75763 13.6513 2.84226 13.6777 2.9273 13.6777C2.99259 13.6777 3.05811 13.6621 3.1181 13.6306L7 11.5897L10.8817 13.6305C11.0199 13.7032 11.1874 13.6911 11.3137 13.5993C11.44 13.5076 11.5033 13.352 11.4769 13.1982L10.7354 8.87563L13.8761 5.81437C13.9879 5.70543 14.0282 5.54243 13.9799 5.39396Z" fill="#F7B500"/>
</svg>
