<svg width="13" height="18" viewBox="0 0 13 18" fill="none" xmlns="http://www.w3.org/2000/svg">
<path d="M6.51586 0.0090332C2.94092 0.0090332 0.113346 2.90753 0.113346 6.48246C0.113346 10.0574 3.047 12.9559 6.62253 12.9559C6.6583 12.9559 6.71103 12.951 6.74679 12.9504C5.3333 14.076 3.55735 14.7543 1.61411 14.7543C0.720078 14.7543 0 15.4792 0 16.3726C0 17.2661 0.584306 17.991 1.47834 17.991C7.82388 17.9904 12.8468 12.828 12.8468 6.48246C12.8468 6.48125 12.8468 6.48004 12.8468 6.47822C12.8468 2.9051 10.0896 0.0090332 6.51586 0.0090332Z" fill="url(#paint0_linear)"/>
<defs>
<linearGradient id="paint0_linear" x1="-1.38885" y1="-6.93853" x2="16.4228" y2="-4.80752" gradientUnits="userSpaceOnUse">
<stop stop-color="#FDD662"/>
<stop offset="1" stop-color="#FCA330"/>
</linearGradient>
</defs>
</svg>
